<svg version="1.1" id="Layer_1" xmlns="http://www.w3.org/2000/svg" xmlns:xlink="http://www.w3.org/1999/xlink" x="0px" y="0px"
	 width="100%" viewBox="0 0 474 474" enable-background="new 0 0 474 474" xml:space="preserve">
<path fill="#000000" opacity="1.000000" stroke="none" 
	d="
M475.000000,165.000000 
	C475.000000,268.639465 475.000000,371.778931 475.000000,474.959198 
	C317.068848,474.959198 159.137711,474.959198 1.103278,474.959198 
	C1.103278,317.110565 1.103278,159.221039 1.103278,1.165758 
	C158.999863,1.165758 316.999908,1.165758 475.000000,1.165758 
	C475.000000,55.528927 475.000000,110.014465 475.000000,165.000000 
M334.064392,128.057907 
	C334.064392,128.057907 334.065857,128.135834 334.593842,127.988693 
	C334.775940,127.685211 334.958038,127.381729 335.070496,127.070839 
	C335.070496,127.070839 335.077637,127.140480 335.598969,126.986671 
	C335.779114,126.685303 335.959259,126.383942 336.070129,126.070267 
	C336.070129,126.070267 336.082214,126.139580 336.605347,125.982674 
	C336.783875,125.678307 336.962402,125.373940 337.069458,125.054100 
	C337.069458,125.054100 337.095032,125.122604 337.714203,124.846077 
	C337.924377,124.212852 338.134552,123.579636 338.939911,122.724434 
	C347.516235,114.027290 356.092529,105.330147 364.780731,96.138756 
	C364.618713,96.090935 364.456726,96.043114 364.399231,95.988327 
	C364.399231,95.988327 364.499817,95.998222 365.324219,95.950310 
	C370.398834,90.957169 375.373169,85.856094 380.585724,81.011360 
	C383.713440,78.104340 383.853516,75.953232 379.866638,73.946289 
	C378.851593,73.435341 377.947876,72.703323 376.875946,71.617935 
	C376.733124,71.308510 376.494476,71.121162 375.914703,70.449883 
	C375.516541,70.374962 375.118378,70.300049 374.445557,70.125351 
	C374.445557,70.125351 374.153503,70.116371 373.813171,69.495560 
	C363.326904,61.879162 353.256348,53.579643 342.221527,46.864685 
	C333.552307,41.589256 323.938446,37.545238 314.296722,34.272640 
	C302.975372,30.429949 291.231079,27.747200 279.553467,25.070692 
	C271.758301,23.284039 263.759338,22.386477 255.736160,20.199144 
	C246.096725,20.127134 236.457291,20.035152 226.817810,20.027681 
	C226.169495,20.027180 225.520676,20.665201 224.295151,21.014317 
	C223.887390,21.334084 223.479630,21.653851 222.388107,22.078735 
	C221.930664,22.130766 221.473236,22.182798 220.238495,22.058680 
	C207.432831,21.056610 195.257370,24.659927 183.066284,27.560831 
	C166.501511,31.502464 150.836319,38.069263 135.859177,46.120289 
	C129.338013,49.625759 123.248383,53.933960 116.249474,57.973167 
	C112.555382,60.636105 108.610085,63.014679 105.213882,66.014839 
	C94.664413,75.334122 83.700714,84.304993 74.097855,94.537338 
	C66.368530,102.773331 60.091057,112.448708 53.733498,121.866241 
	C49.957829,127.459190 47.274624,133.789627 43.394127,140.054092 
	C40.882416,145.686188 38.370701,151.318298 35.184395,157.260986 
	C32.429722,166.186340 29.675049,175.111710 26.216099,184.249084 
	C26.116701,185.472458 26.017303,186.695816 25.193781,188.286560 
	C24.215334,196.256302 23.236887,204.226044 22.064587,213.129196 
	C22.078655,215.320328 22.092726,217.511444 21.348419,220.145340 
	C21.216089,233.430634 20.094252,246.801788 21.237356,259.976410 
	C22.321053,272.466370 25.778185,284.750366 28.049650,297.869293 
	C30.730618,304.660706 33.411583,311.452118 36.029057,318.974579 
	C38.622097,324.025482 41.215141,329.076385 43.641113,334.746002 
	C45.614349,338.901367 47.176979,343.321350 49.648170,347.155792 
	C54.469246,354.636505 59.798611,361.789642 64.864922,369.055328 
	C64.864922,369.055328 64.858688,369.112396 64.870583,369.826355 
	C69.917068,375.511719 74.785561,381.368530 80.054688,386.839478 
	C86.799156,393.842346 93.473724,400.999268 100.881927,407.256958 
	C113.586647,417.988586 127.893867,426.411926 142.727188,433.897766 
	C172.667053,449.007355 204.860107,454.628082 237.959305,455.836090 
	C246.466751,456.146576 255.143875,455.266052 263.561157,453.850922 
	C279.855560,451.111481 296.321899,448.646301 312.142700,444.078430 
	C324.454712,440.523651 336.151306,434.447083 347.619080,428.519440 
	C353.566681,425.445129 358.424469,420.262421 364.154053,415.391602 
	C369.731110,410.966278 375.308167,406.540955 381.584839,401.911713 
	C384.080719,399.621368 386.576569,397.331024 389.666687,394.739075 
	C403.985718,381.761780 414.282471,365.843262 422.909088,348.775574 
	C424.759186,345.115143 425.577698,340.933258 426.989716,336.565338 
	C426.989716,336.565338 427.066498,336.129669 427.803040,336.008820 
	C429.902466,331.018219 432.001862,326.027588 434.735382,320.666138 
	C436.441986,314.432983 438.148560,308.199799 440.228668,301.264313 
	C443.901215,286.406830 446.081604,271.354034 446.885681,255.580536 
	C446.933533,247.492737 447.022552,239.404724 446.982758,231.317352 
	C446.977081,230.165527 446.346619,229.016769 446.018280,226.958603 
	C444.996460,218.285843 443.974670,209.613068 442.939240,200.064850 
	C442.001617,199.377243 441.065277,198.090927 440.126221,198.088974 
	C411.120361,198.028534 382.114227,198.093750 352.227661,198.025513 
	C345.478607,198.421814 338.729553,198.818115 331.520477,199.083176 
	C331.520477,199.083176 331.052795,198.982468 330.909607,198.480988 
	C330.588715,198.648071 330.267792,198.815170 329.491119,199.082626 
	C329.491119,199.082626 329.043182,199.213715 328.505615,199.072052 
	C328.326508,199.119553 328.147369,199.167038 327.467773,199.067368 
	C327.297516,199.032074 327.127228,198.996765 326.580261,198.180801 
	C316.390808,198.181900 306.201385,198.182999 295.084229,198.030624 
	C277.388977,198.020676 259.693634,197.990936 241.998566,198.041656 
	C240.704010,198.045364 239.411118,198.631271 237.767654,199.732498 
	C237.557571,207.541824 237.347488,215.351166 237.031998,224.068085 
	C237.024796,231.484131 236.964127,238.900879 237.062332,246.315536 
	C237.078949,247.570328 237.779373,248.816086 238.086624,250.455353 
	C238.086624,250.455353 238.205414,250.834076 238.038834,251.790344 
	C237.697189,257.193939 237.128662,262.595581 237.082748,268.001678 
	C237.043091,272.672974 237.597412,277.349274 238.247437,282.722961 
	C239.303009,282.784424 240.358566,282.845886 241.543121,283.074127 
	C241.543121,283.074127 241.710892,282.946411 242.196854,283.722382 
	C253.712296,283.813721 265.227692,283.918060 276.743286,283.952789 
	C277.248291,283.954315 277.755219,283.318359 278.514252,283.065582 
	C278.514252,283.065582 278.735352,282.915344 279.725433,282.989471 
	C302.574158,282.993439 325.423004,282.972229 348.271484,283.048187 
	C350.146576,283.054413 352.019501,283.721741 353.969635,284.855652 
	C353.631531,285.936249 353.369263,287.047729 352.943420,288.092560 
	C349.303345,297.023956 346.428345,306.385773 341.769104,314.752716 
	C336.103790,324.926331 329.033142,334.328156 319.254730,341.249023 
	C316.362152,343.296326 313.758759,345.752228 310.375519,348.271027 
	C298.838989,356.215393 286.184906,361.975433 272.623230,365.005585 
	C263.067749,367.140625 253.075790,367.290558 243.292786,368.446045 
	C226.622559,370.414917 210.674713,367.196625 195.164886,361.510071 
	C176.053497,354.503143 159.793106,343.226868 145.749878,328.429321 
	C132.584869,314.557159 123.986816,298.227692 117.280075,279.993317 
	C115.775459,275.105377 114.270851,270.217407 112.843697,264.597717 
	C112.243507,257.341461 111.267281,250.091873 111.138710,242.827271 
	C110.979492,233.831238 111.523170,224.822784 111.947838,214.897110 
	C113.019615,209.288406 114.091385,203.679703 115.802429,197.779678 
	C116.379951,196.806686 117.020752,195.865295 117.525185,194.855789 
	C122.383865,185.131989 126.437485,174.891983 132.295395,165.815460 
	C137.512054,157.732498 144.484451,150.713715 151.127609,143.644012 
	C155.730652,138.745422 161.090347,134.557831 166.824402,130.005768 
	C178.214600,124.282494 189.604782,118.559219 201.791504,112.966080 
	C213.366440,110.012749 224.963226,107.192551 237.063690,107.987366 
	C246.046478,108.577400 255.026367,109.211823 264.695038,110.220749 
	C282.967438,114.852798 299.810883,122.341141 314.321136,134.662964 
	C316.221039,136.276337 318.803131,137.086349 321.445679,138.820969 
	C322.596466,138.429245 324.040649,138.348602 324.845245,137.589783 
	C327.716766,134.881714 330.371063,131.943298 333.041595,129.067017 
	C333.041595,129.067017 333.049957,129.137070 333.563538,128.953278 
	C333.756470,128.655014 333.949402,128.356766 334.064392,128.057907 
z"/>
<path fill="#EA4337" opacity="1.000000" stroke="none" 
	d="
M374.153503,70.116371 
	C374.153503,70.116371 374.445557,70.125351 374.788696,70.370239 
	C375.474579,70.762047 375.817261,70.908958 376.159973,71.055878 
	C376.494476,71.121162 376.733124,71.308510 376.942993,72.179642 
	C378.986908,77.753067 378.011719,81.693863 373.530243,85.131287 
	C370.320801,87.593018 367.783905,90.931503 364.784180,94.210617 
	C364.512512,95.026718 364.403595,95.511002 364.294678,95.995285 
	C364.456726,96.043114 364.618713,96.090935 364.365173,96.288162 
	C363.327698,96.624352 362.523743,96.623749 362.110504,97.025284 
	C351.427795,107.405739 340.760223,117.802269 330.178833,128.285645 
	C329.192322,129.263031 328.795929,130.836075 328.106140,132.113373 
	C328.086761,132.094208 328.136261,132.072266 327.794373,132.115372 
	C326.651001,133.140823 325.849548,134.123154 325.034943,135.069122 
	C325.021820,135.032730 325.094849,135.007217 324.875031,135.147614 
	C324.440369,135.558701 324.225494,135.829407 324.034485,136.069702 
	C324.058380,136.039307 324.121399,136.084122 323.717407,136.054993 
	C321.609589,135.535065 319.549713,135.493484 318.264435,134.474686 
	C313.059906,130.349228 308.384216,125.823837 302.386505,122.424774 
	C290.259491,115.552094 277.490936,111.061691 263.633636,108.005966 
	C249.360306,104.350845 235.221893,105.550415 221.254242,106.396446 
	C214.407715,106.811134 207.729599,110.006401 200.566681,111.953331 
	C186.913208,114.501297 175.504242,120.825829 164.702774,129.178528 
	C140.615051,144.730255 125.874420,167.359451 115.187622,192.561844 
	C109.096779,188.768280 103.962372,185.570404 98.486389,182.280487 
	C88.670670,174.942871 79.243408,167.634888 69.707840,160.471069 
	C61.780567,154.515503 53.725971,148.729416 45.778694,142.826263 
	C45.829617,142.784271 45.831825,142.659195 46.061951,142.294434 
	C50.612492,134.169846 54.748760,126.299217 59.325665,118.693764 
	C61.877998,114.452553 64.896629,110.417686 68.170372,106.699463 
	C76.418533,97.331451 84.601067,87.863914 93.448174,79.079063 
	C99.761024,72.810631 107.108795,67.584457 114.279861,61.817940 
	C115.056557,61.169071 115.548126,60.595463 116.028763,60.006702 
	C116.017838,59.991547 116.016190,60.027615 116.208740,59.884964 
	C116.645561,59.532501 116.854622,59.292065 117.025024,59.035454 
	C117.021576,59.049896 117.051483,59.047646 117.393890,58.946091 
	C120.522530,57.422489 123.327675,56.036129 126.091362,54.571541 
	C133.672470,50.554024 141.102997,46.221550 148.852615,42.563450 
	C154.198410,40.040051 159.924500,38.271576 165.572540,36.450764 
	C174.798935,33.476357 184.013382,30.395470 193.394730,27.991047 
	C202.495697,25.658484 211.800507,24.121311 221.015793,22.234827 
	C221.473236,22.182798 221.930664,22.130766 223.060883,22.248856 
	C225.702988,22.588516 227.669601,22.803917 229.642044,22.920284 
	C244.489090,23.796204 259.528687,23.444782 274.146240,25.760695 
	C306.950165,30.957937 336.583740,44.355156 363.513489,63.788456 
	C366.846619,66.193718 370.596649,68.021172 374.153503,70.116371 
z"/>
<path fill="#36A754" opacity="1.000000" stroke="none" 
	d="
M117.778610,280.407013 
	C123.986816,298.227692 132.584869,314.557159 145.749878,328.429321 
	C159.793106,343.226868 176.053497,354.503143 195.164886,361.510071 
	C210.674713,367.196625 226.622559,370.414917 243.292786,368.446045 
	C253.075790,367.290558 263.067749,367.140625 272.623230,365.005585 
	C286.184906,361.975433 298.838989,356.215393 310.905884,348.402466 
	C313.921783,350.979279 316.195984,353.695831 318.927765,355.825348 
	C334.728943,368.142761 350.585663,380.390686 366.543640,392.503937 
	C371.119568,395.977386 376.093689,398.926239 380.885223,402.115662 
	C375.308167,406.540955 369.731110,410.966278 363.614990,415.742584 
	C362.013672,416.538300 360.900330,416.890106 359.897125,417.442108 
	C349.514984,423.154663 339.314606,429.227509 328.725006,434.522827 
	C321.363922,438.203766 313.672394,441.538452 305.769623,443.739105 
	C296.601257,446.292175 287.094086,447.843292 277.636566,449.090576 
	C264.918610,450.767822 252.131470,452.146637 239.329697,452.900238 
	C225.861557,453.693146 212.463348,452.533356 199.287415,449.204926 
	C190.569885,447.002777 181.470367,446.014587 173.032104,443.075439 
	C160.551514,438.728363 148.196671,433.749634 136.390366,427.837524 
	C129.158539,424.216125 122.642090,419.097412 115.442177,415.113800 
	C108.847473,411.465027 103.349762,405.793488 97.529602,400.824738 
	C96.574501,400.009369 96.609787,398.127441 95.894333,396.910797 
	C95.213425,395.752930 94.164810,393.944427 93.250771,393.927948 
	C86.044464,393.798309 84.875671,386.622314 80.561974,383.172333 
	C76.020142,379.539856 72.618690,374.503448 68.532669,370.259857 
	C67.752396,369.449493 66.105667,369.473389 64.858688,369.112396 
	C64.858688,369.112396 64.864922,369.055328 64.917007,368.654938 
	C64.020523,365.516937 63.496853,362.526764 62.046818,360.087189 
	C56.892693,351.415863 51.422924,342.932129 46.216782,334.062073 
	C49.898373,330.997253 53.437176,328.249359 56.973099,325.497803 
	C75.457039,311.114105 93.916611,296.698822 112.470062,282.405365 
	C113.902557,281.301788 115.993637,281.053070 117.778610,280.407013 
z"/>
<path fill="#4387F6" opacity="1.000000" stroke="none" 
	d="
M427.066528,336.129669 
	C427.066498,336.129669 426.989716,336.565338 426.624451,336.918823 
	C423.928833,341.210754 421.394897,345.044525 419.307190,349.107605 
	C413.521545,360.367340 408.169403,371.883911 397.885406,380.035767 
	C397.059570,380.690399 396.729462,381.961823 396.146271,382.932983 
	C395.077515,384.712646 394.082001,386.545471 392.891266,388.240479 
	C391.285370,390.526459 389.523865,392.703125 387.497131,395.013367 
	C384.223846,395.662872 382.539062,400.601807 378.475342,397.395447 
	C371.830292,392.152252 365.093506,387.023926 358.344238,381.914795 
	C350.056030,375.640808 341.605682,369.575806 333.433716,363.155334 
	C327.425812,358.435120 321.752563,353.289001 315.811768,348.231873 
	C326.649048,338.260803 336.735229,329.539734 343.753052,317.782166 
	C349.519226,308.121490 353.683258,297.995544 356.335571,286.990814 
	C356.677643,286.264496 356.793518,285.626862 356.823120,284.705688 
	C356.176514,283.917206 355.616180,283.412262 355.038086,282.725800 
	C355.020325,282.544281 355.014618,282.177155 354.897858,281.858948 
	C354.070007,281.250916 353.358612,280.706970 352.647827,280.707764 
	C315.779663,280.748779 278.911530,280.835999 242.031937,280.491425 
	C241.690338,277.597900 241.083618,275.132385 241.073608,272.664459 
	C240.990616,252.204224 240.958084,231.743011 241.139801,211.284119 
	C241.152603,209.844116 242.993317,208.420334 244.439682,206.991302 
	C247.936523,206.991882 250.977707,206.990158 254.485535,206.989304 
	C309.295074,206.989685 363.637970,206.989182 418.446838,206.991013 
	C423.280518,206.991959 427.648193,206.990601 432.439270,206.991013 
	C435.582214,206.656387 438.301788,206.319992 441.192596,206.327820 
	C441.906860,208.899368 442.827972,211.109695 442.929016,213.356888 
	C443.433197,224.569672 444.090363,235.795898 443.975922,247.010071 
	C443.875122,256.886810 443.157501,266.789612 442.095215,276.614197 
	C441.210175,284.799622 439.429962,292.888275 438.016479,301.414734 
	C436.269623,308.181000 434.552490,314.552246 432.656250,321.145508 
	C430.673584,326.288208 428.870056,331.208954 427.066528,336.129669 
z"/>
<path fill="#F8BD09" opacity="1.000000" stroke="none" 
	d="
M117.529343,280.200165 
	C115.993637,281.053070 113.902557,281.301788 112.470062,282.405365 
	C93.916611,296.698822 75.457039,311.114105 56.973099,325.497803 
	C53.437176,328.249359 49.898373,330.997253 45.847538,333.968231 
	C44.825527,334.168854 44.316856,334.148071 43.808189,334.127289 
	C41.215141,329.076385 38.622097,324.025482 36.180599,318.284668 
	C34.185684,310.776733 32.039227,303.958679 29.898415,296.730652 
	C28.278933,288.545013 26.299986,280.823364 25.103788,272.982330 
	C22.756710,257.597260 21.427246,242.127579 22.862680,226.526947 
	C23.068113,224.294235 22.380892,221.979401 22.106794,219.702576 
	C22.092726,217.511444 22.078655,215.320328 22.376099,212.503098 
	C23.775450,205.504669 24.863287,199.132324 26.124729,192.461884 
	C26.521210,190.772568 26.744085,189.381363 27.040085,187.800385 
	C27.113209,187.610596 27.124180,187.203979 27.302467,186.893707 
	C30.626335,176.723938 33.771915,166.864441 37.153923,156.757233 
	C38.195316,154.899719 38.876781,153.212097 39.831436,151.696579 
	C41.716900,148.703415 43.753609,145.805542 45.727776,142.868256 
	C53.725971,148.729416 61.780567,154.515503 69.707840,160.471069 
	C79.243408,167.634888 88.670670,174.942871 98.613144,182.563446 
	C101.401291,184.816223 103.860092,186.548859 106.008133,188.606003 
	C109.175911,191.639755 112.122414,194.904587 115.163155,198.070999 
	C114.091385,203.679703 113.019615,209.288406 111.604416,215.485718 
	C107.676086,229.810333 108.273903,243.671234 110.228905,257.529114 
	C110.605072,260.195496 111.896851,262.732666 112.766235,265.329468 
	C114.270851,270.217407 115.775459,275.105377 117.529343,280.200165 
z"/>
<path fill="#4485F3" opacity="1.000000" stroke="none" 
	d="
M254.018890,206.988434 
	C250.977707,206.990158 247.936523,206.991882 244.406982,206.645340 
	C242.938278,204.521240 241.957962,202.745438 240.998215,200.754822 
	C241.018784,200.540009 241.059204,200.110336 241.521515,200.091766 
	C267.757660,200.051056 293.531616,200.052216 319.305237,199.966354 
	C321.576752,199.958801 323.846375,199.382339 326.323761,199.018646 
	C326.530640,198.967178 326.956970,198.961472 326.956970,198.961472 
	C327.127228,198.996765 327.297516,199.032074 327.837219,199.238373 
	C328.206635,199.409378 328.656128,199.441864 328.656128,199.441864 
	C328.656128,199.441864 329.043182,199.213715 329.043182,199.213715 
	C329.043182,199.213715 329.491119,199.082626 329.995605,199.044250 
	C330.684296,198.998077 330.868561,198.990265 331.052795,198.982468 
	C331.052795,198.982468 331.520477,199.083176 332.121521,199.330292 
	C334.871155,199.721893 337.019592,199.989471 339.168365,199.992264 
	C367.968201,200.029663 396.768219,199.988586 425.567780,200.086288 
	C429.696106,200.100281 433.822327,200.740219 437.805603,201.397278 
	C435.779724,203.465790 433.897797,205.227509 432.015869,206.989227 
	C427.648193,206.990601 423.280518,206.991959 418.268005,206.650970 
	C415.927521,205.873032 414.232361,205.059113 412.536163,205.056870 
	C361.589111,204.989120 310.641876,204.980194 259.694946,205.085190 
	C257.801605,205.089081 255.910858,206.326080 254.018890,206.988434 
z"/>
<path fill="#47A062" opacity="1.000000" stroke="none" 
	d="
M64.864639,369.469360 
	C66.105667,369.473389 67.752396,369.449493 68.532669,370.259857 
	C72.618690,374.503448 76.020142,379.539856 80.561974,383.172333 
	C84.875671,386.622314 86.044464,393.798309 93.250771,393.927948 
	C94.164810,393.944427 95.213425,395.752930 95.894333,396.910797 
	C96.609787,398.127441 96.574501,400.009369 97.529602,400.824738 
	C103.349762,405.793488 108.847473,411.465027 115.442177,415.113800 
	C122.642090,419.097412 129.158539,424.216125 136.390366,427.837524 
	C148.196671,433.749634 160.551514,438.728363 173.032104,443.075439 
	C181.470367,446.014587 190.569885,447.002777 199.287415,449.204926 
	C212.463348,452.533356 225.861557,453.693146 239.329697,452.900238 
	C252.131470,452.146637 264.918610,450.767822 277.636566,449.090576 
	C287.094086,447.843292 296.601257,446.292175 305.769623,443.739105 
	C313.672394,441.538452 321.363922,438.203766 328.725006,434.522827 
	C339.314606,429.227509 349.514984,423.154663 359.897125,417.442108 
	C360.900330,416.890106 362.013672,416.538300 363.425232,416.062866 
	C358.424469,420.262421 353.566681,425.445129 347.619080,428.519440 
	C336.151306,434.447083 324.454712,440.523651 312.142700,444.078430 
	C296.321899,448.646301 279.855560,451.111481 263.561157,453.850922 
	C255.143875,455.266052 246.466751,456.146576 237.959305,455.836090 
	C204.860107,454.628082 172.667053,449.007355 142.727188,433.897766 
	C127.893867,426.411926 113.586647,417.988586 100.881927,407.256958 
	C93.473724,400.999268 86.799156,393.842346 80.054688,386.839478 
	C74.785561,381.368530 69.917068,375.511719 64.864639,369.469360 
z"/>
<path fill="#4F8EC6" opacity="1.000000" stroke="none" 
	d="
M355.055847,282.907318 
	C355.616180,283.412262 356.176514,283.917206 356.656189,284.935913 
	C356.420166,285.992981 356.264771,286.536255 356.109375,287.079529 
	C353.683258,297.995544 349.519226,308.121490 343.753052,317.782166 
	C336.735229,329.539734 326.649048,338.260803 315.811768,348.231873 
	C321.752563,353.289001 327.425812,358.435120 333.433716,363.155334 
	C341.605682,369.575806 350.056030,375.640808 358.344238,381.914795 
	C365.093506,387.023926 371.830292,392.152252 378.475342,397.395447 
	C382.539062,400.601807 384.223846,395.662872 387.808533,395.045013 
	C388.658813,395.006897 388.865601,395.023743 389.072449,395.040649 
	C386.576569,397.331024 384.080719,399.621368 381.235046,402.013672 
	C376.093689,398.926239 371.119568,395.977386 366.543640,392.503937 
	C350.585663,380.390686 334.728943,368.142761 318.927765,355.825348 
	C316.195984,353.695831 313.921783,350.979279 311.229553,348.277374 
	C313.758759,345.752228 316.362152,343.296326 319.254730,341.249023 
	C329.033142,334.328156 336.103790,324.926331 341.769104,314.752716 
	C346.428345,306.385773 349.303345,297.023956 352.943420,288.092560 
	C353.369263,287.047729 353.631531,285.936249 354.154846,284.303894 
	C354.578674,283.470551 354.817261,283.188934 355.055847,282.907318 
z"/>
<path fill="#C7524A" opacity="1.000000" stroke="none" 
	d="
M373.983337,69.805969 
	C370.596649,68.021172 366.846619,66.193718 363.513489,63.788456 
	C336.583740,44.355156 306.950165,30.957937 274.146240,25.760695 
	C259.528687,23.444782 244.489090,23.796204 229.642044,22.920284 
	C227.669601,22.803917 225.702988,22.588516 223.402771,22.196297 
	C223.479630,21.653851 223.887390,21.334084 225.057541,21.068012 
	C235.830490,21.111481 245.841034,21.101254 255.851593,21.091026 
	C263.759338,22.386477 271.758301,23.284039 279.553467,25.070692 
	C291.231079,27.747200 302.975372,30.429949 314.296722,34.272640 
	C323.938446,37.545238 333.552307,41.589256 342.221527,46.864685 
	C353.256348,53.579643 363.326904,61.879162 373.983337,69.805969 
z"/>
<path fill="#C65A53" opacity="1.000000" stroke="none" 
	d="
M113.994743,61.893192 
	C107.108795,67.584457 99.761024,72.810631 93.448174,79.079063 
	C84.601067,87.863914 76.418533,97.331451 68.170372,106.699463 
	C64.896629,110.417686 61.877998,114.452553 59.325665,118.693764 
	C54.748760,126.299217 50.612492,134.169846 45.817253,142.174255 
	C44.928368,141.542068 44.514301,140.665283 44.100235,139.788483 
	C47.274624,133.789627 49.957829,127.459190 53.733498,121.866241 
	C60.091057,112.448708 66.368530,102.773331 74.097855,94.537338 
	C83.700714,84.304993 94.664413,75.334122 105.213882,66.014839 
	C108.610085,63.014679 112.555382,60.636105 116.627670,58.217941 
	C117.021080,58.657692 117.036278,58.852669 117.051483,59.047646 
	C117.051483,59.047646 117.021576,59.049896 116.834885,59.180794 
	C116.406113,59.522606 116.195442,59.761246 116.016190,60.027615 
	C116.016190,60.027615 116.017838,59.991547 115.781433,60.144112 
	C115.028259,60.828846 114.511497,61.361019 113.994743,61.893192 
z"/>
<path fill="#C7524A" opacity="1.000000" stroke="none" 
	d="
M117.393890,58.946091 
	C117.036278,58.852669 117.021080,58.657692 116.984314,58.170155 
	C123.248383,53.933960 129.338013,49.625759 135.859177,46.120289 
	C150.836319,38.069263 166.501511,31.502464 183.066284,27.560831 
	C195.257370,24.659927 207.432831,21.056610 220.627136,22.146751 
	C211.800507,24.121311 202.495697,25.658484 193.394730,27.991047 
	C184.013382,30.395470 174.798935,33.476357 165.572540,36.450764 
	C159.924500,38.271576 154.198410,40.040051 148.852615,42.563450 
	C141.102997,46.221550 133.672470,50.554024 126.091362,54.571541 
	C123.327675,56.036129 120.522530,57.422489 117.393890,58.946091 
z"/>
<path fill="#C05647" opacity="1.000000" stroke="none" 
	d="
M115.482788,197.925339 
	C112.122414,194.904587 109.175911,191.639755 106.008133,188.606003 
	C103.860092,186.548859 101.401291,184.816223 98.954712,182.655487 
	C103.962372,185.570404 109.096779,188.768280 115.187622,192.561844 
	C125.874420,167.359451 140.615051,144.730255 164.871155,129.370117 
	C165.593353,129.613495 165.852646,129.833038 166.111954,130.052567 
	C161.090347,134.557831 155.730652,138.745422 151.127609,143.644012 
	C144.484451,150.713715 137.512054,157.732498 132.295395,165.815460 
	C126.437485,174.891983 122.383865,185.131989 117.525185,194.855789 
	C117.020752,195.865295 116.379951,196.806686 115.482788,197.925339 
z"/>
<path fill="#5382CE" opacity="1.000000" stroke="none" 
	d="
M438.046204,301.019775 
	C439.429962,292.888275 441.210175,284.799622 442.095215,276.614197 
	C443.157501,266.789612 443.875122,256.886810 443.975922,247.010071 
	C444.090363,235.795898 443.433197,224.569672 442.929016,213.356888 
	C442.827972,211.109695 441.906860,208.899368 441.193420,205.948944 
	C440.349457,203.814682 439.675964,202.403534 439.001648,200.682526 
	C438.994324,199.959579 438.987854,199.546478 439.320618,199.090790 
	C440.757538,199.678879 441.855194,200.309601 442.952850,200.940308 
	C443.974670,209.613068 444.996460,218.285843 445.979309,227.889221 
	C446.010223,237.888153 446.080109,246.956482 446.150024,256.024811 
	C446.081604,271.354034 443.901215,286.406830 439.815735,301.496155 
	C438.950623,301.491943 438.498413,301.255859 438.046204,301.019775 
z"/>
<path fill="#5481CA" opacity="1.000000" stroke="none" 
	d="
M389.369568,394.889832 
	C388.865601,395.023743 388.658813,395.006897 388.140564,394.958374 
	C389.523865,392.703125 391.285370,390.526459 392.891266,388.240479 
	C394.082001,386.545471 395.077515,384.712646 396.146271,382.932983 
	C396.729462,381.961823 397.059570,380.690399 397.885406,380.035767 
	C408.169403,371.883911 413.521545,360.367340 419.307190,349.107605 
	C421.394897,345.044525 423.928833,341.210754 426.565308,337.131958 
	C425.577698,340.933258 424.759186,345.115143 422.909088,348.775574 
	C414.282471,365.843262 403.985718,381.761780 389.369568,394.889832 
z"/>
<path fill="#C4554D" opacity="1.000000" stroke="none" 
	d="
M264.040100,108.063087 
	C277.490936,111.061691 290.259491,115.552094 302.386505,122.424774 
	C308.384216,125.823837 313.059906,130.349228 318.264435,134.474686 
	C319.549713,135.493484 321.609589,135.535065 323.581665,136.356949 
	C322.923065,137.214828 321.996155,137.741638 321.069275,138.268433 
	C318.803131,137.086349 316.221039,136.276337 314.321136,134.662964 
	C299.810883,122.341141 282.967438,114.852798 264.357056,109.729324 
	C264.026093,108.846291 264.033081,108.454689 264.040100,108.063087 
z"/>
<path fill="#4985E9" opacity="1.000000" stroke="none" 
	d="
M240.977631,200.969635 
	C241.957962,202.745438 242.938278,204.521240 243.951324,206.643036 
	C242.993317,208.420334 241.152603,209.844116 241.139801,211.284119 
	C240.958084,231.743011 240.990616,252.204224 241.073608,272.664459 
	C241.083618,275.132385 241.690338,277.597900 241.767868,280.506775 
	C241.339355,280.955750 241.163452,280.962494 240.745590,280.677673 
	C240.015900,277.643127 239.261520,274.916412 239.092529,272.153961 
	C238.658325,265.055786 238.483765,257.941772 238.205414,250.834076 
	C238.205414,250.834076 238.086624,250.455353 238.076721,250.080505 
	C238.066818,249.705643 238.219666,249.366348 238.400345,248.970123 
	C238.737671,246.763519 239.024658,244.953522 239.029877,243.142700 
	C239.064346,231.197784 238.944061,219.251297 239.119507,207.308929 
	C239.150681,205.187195 240.329025,203.082306 240.977631,200.969635 
z"/>
<path fill="#E8C559" opacity="1.000000" stroke="none" 
	d="
M21.727608,219.923950 
	C22.380892,221.979401 23.068113,224.294235 22.862680,226.526947 
	C21.427246,242.127579 22.756710,257.597260 25.103788,272.982330 
	C26.299986,280.823364 28.278933,288.545013 29.615223,296.727661 
	C28.948114,297.131439 28.569838,297.128204 28.191563,297.124939 
	C25.778185,284.750366 22.321053,272.466370 21.237356,259.976410 
	C20.094252,246.801788 21.216089,233.430634 21.727608,219.923950 
z"/>
<path fill="#457BD5" opacity="1.000000" stroke="none" 
	d="
M240.987564,280.969269 
	C241.163452,280.962494 241.339355,280.955750 241.779312,280.933685 
	C278.911530,280.835999 315.779663,280.748779 352.647827,280.707764 
	C353.358612,280.706970 354.070007,281.250916 354.429504,281.798340 
	C330.554840,282.040009 307.031738,282.006409 283.508759,282.047150 
	C281.917114,282.049896 280.326477,282.612885 278.735352,282.915344 
	C278.735352,282.915344 278.514252,283.065582 278.116516,282.910919 
	C277.535004,282.689880 277.351227,282.623535 277.019531,282.437195 
	C276.523895,282.397217 276.176147,282.477173 275.371277,282.570190 
	C263.846375,282.704346 252.778625,282.825378 241.710892,282.946411 
	C241.710892,282.946411 241.543121,283.074127 241.429794,282.735657 
	C241.240601,282.242096 241.164734,282.087067 241.063339,281.691345 
	C241.037811,281.450653 240.987564,280.969269 240.987564,280.969269 
z"/>
<path fill="#BF5045" opacity="1.000000" stroke="none" 
	d="
M263.633636,108.005966 
	C264.033081,108.454689 264.026093,108.846291 264.013306,109.532181 
	C255.026367,109.211823 246.046478,108.577400 237.063690,107.987366 
	C224.963226,107.192551 213.366440,110.012749 201.389465,112.677811 
	C200.987411,112.389534 200.975266,111.943222 200.975266,111.943222 
	C207.729599,110.006401 214.407715,106.811134 221.254242,106.396446 
	C235.221893,105.550415 249.360306,104.350845 263.633636,108.005966 
z"/>
<path fill="#47A062" opacity="1.000000" stroke="none" 
	d="
M43.724651,334.436646 
	C44.316856,334.148071 44.825527,334.168854 45.703438,334.283508 
	C51.422924,342.932129 56.892693,351.415863 62.046818,360.087189 
	C63.496853,362.526764 64.020523,365.516937 64.943298,368.666473 
	C59.798611,361.789642 54.469246,354.636505 49.648170,347.155792 
	C47.176979,343.321350 45.614349,338.901367 43.724651,334.436646 
z"/>
<path fill="#4A77CB" opacity="1.000000" stroke="none" 
	d="
M438.981384,199.133392 
	C438.987854,199.546478 438.994324,199.959579 438.738098,200.703888 
	C438.300079,201.053558 438.124786,201.072021 437.949524,201.090469 
	C433.822327,200.740219 429.696106,200.100281 425.567780,200.086288 
	C396.768219,199.988586 367.968201,200.029663 339.168365,199.992264 
	C337.019592,199.989471 334.871155,199.721893 332.351532,199.395905 
	C338.729553,198.818115 345.478607,198.421814 352.983154,198.341644 
	C355.721863,198.779846 357.704895,199.004089 359.688416,199.008560 
	C386.119354,199.068146 412.550385,199.096939 438.981384,199.133392 
z"/>
<path fill="#F8EB98" opacity="1.000000" stroke="none" 
	d="
M112.804962,264.963593 
	C111.896851,262.732666 110.605072,260.195496 110.228905,257.529114 
	C108.273903,243.671234 107.676086,229.810333 111.512085,215.947006 
	C111.523170,224.822784 110.979492,233.831238 111.138710,242.827271 
	C111.267281,250.091873 112.243507,257.341461 112.804962,264.963593 
z"/>
<path fill="#C4554D" opacity="1.000000" stroke="none" 
	d="
M328.125549,132.132553 
	C328.795929,130.836075 329.192322,129.263031 330.178833,128.285645 
	C340.760223,117.802269 351.427795,107.405739 362.110504,97.025284 
	C362.523743,96.623749 363.327698,96.624352 364.309235,96.535294 
	C356.092529,105.330147 347.516235,114.027290 338.295227,122.999008 
	C337.465393,123.889931 337.280212,124.506264 337.095032,125.122604 
	C337.095032,125.122604 337.069458,125.054100 336.728699,124.951004 
	C336.286041,125.278465 336.184143,125.709023 336.082214,126.139580 
	C336.082214,126.139580 336.070129,126.070267 335.731873,125.947426 
	C335.288269,126.263214 335.182953,126.701851 335.077637,127.140480 
	C335.077637,127.140480 335.070496,127.070839 334.733215,126.955521 
	C334.285919,127.272079 334.175873,127.703957 334.065857,128.135834 
	C334.065857,128.135834 334.064392,128.057907 333.746155,127.982208 
	C333.301941,128.316696 333.175964,128.726883 333.049988,129.137070 
	C333.049957,129.137070 333.041595,129.067017 332.773193,128.879272 
	C331.045074,129.838547 329.585297,130.985550 328.125549,132.132553 
z"/>
<path fill="#BD5249" opacity="1.000000" stroke="none" 
	d="
M200.566681,111.953331 
	C200.975266,111.943222 200.987411,112.389534 200.991196,112.612747 
	C189.604782,118.559219 178.214600,124.282494 166.468170,130.029175 
	C165.852646,129.833038 165.593353,129.613495 165.165649,129.202362 
	C175.504242,120.825829 186.913208,114.501297 200.566681,111.953331 
z"/>
<path fill="#A4C2ED" opacity="1.000000" stroke="none" 
	d="
M439.320618,199.090790 
	C412.550385,199.096939 386.119354,199.068146 359.688416,199.008560 
	C357.704895,199.004089 355.721863,198.779846 353.423401,198.398682 
	C382.114227,198.093750 411.120361,198.028534 440.126221,198.088974 
	C441.065277,198.090927 442.001617,199.377243 442.946045,200.502579 
	C441.855194,200.309601 440.757538,199.678879 439.320618,199.090790 
z"/>
<path fill="#5D89B9" opacity="1.000000" stroke="none" 
	d="
M240.998199,200.754822 
	C240.329025,203.082306 239.150681,205.187195 239.119507,207.308929 
	C238.944061,219.251297 239.064346,231.197784 239.029877,243.142700 
	C239.024658,244.953522 238.737671,246.763519 238.330063,248.465546 
	C238.056534,246.363113 238.084778,244.366913 238.002029,242.375305 
	C237.735870,235.969452 237.428741,229.565308 237.137421,223.160492 
	C237.347488,215.351166 237.557571,207.541824 238.303986,199.374237 
	C239.565002,199.044083 240.289658,199.072189 241.020844,199.352936 
	C241.037979,199.773834 241.048599,199.942093 241.059204,200.110336 
	C241.059204,200.110336 241.018784,200.540009 240.998199,200.754822 
z"/>
<path fill="#8FB6F3" opacity="1.000000" stroke="none" 
	d="
M279.230408,282.952393 
	C280.326477,282.612885 281.917114,282.049896 283.508759,282.047150 
	C307.031738,282.006409 330.554840,282.040009 354.546265,282.116577 
	C355.014618,282.177155 355.020325,282.544281 355.038086,282.725800 
	C354.817261,283.188934 354.578674,283.470551 354.116760,283.916992 
	C352.019501,283.721741 350.146576,283.054413 348.271484,283.048187 
	C325.423004,282.972229 302.574158,282.993439 279.230408,282.952393 
z"/>
<path fill="#C2564E" opacity="1.000000" stroke="none" 
	d="
M364.946930,93.878815 
	C367.783905,90.931503 370.320801,87.593018 373.530243,85.131287 
	C378.011719,81.693863 378.986908,77.753067 377.001526,72.407120 
	C377.947876,72.703323 378.851593,73.435341 379.866638,73.946289 
	C383.853516,75.953232 383.713440,78.104340 380.585724,81.011360 
	C375.373169,85.856094 370.398834,90.957169 365.040558,95.445114 
	C364.820221,94.586220 364.883575,94.232513 364.946930,93.878815 
z"/>
<path fill="#F8E590" opacity="1.000000" stroke="none" 
	d="
M36.917500,157.004959 
	C33.771915,166.864441 30.626335,176.723938 27.259558,186.498337 
	C26.999035,185.621185 26.959707,184.829132 26.920378,184.037064 
	C29.675049,175.111710 32.429722,166.186340 35.786499,157.116104 
	C36.564903,156.982483 36.741203,156.993729 36.917500,157.004959 
z"/>
<path fill="#A4C2ED" opacity="1.000000" stroke="none" 
	d="
M241.014328,199.100281 
	C240.289658,199.072189 239.565002,199.044083 238.478897,198.981262 
	C239.411118,198.631271 240.704010,198.045364 241.998566,198.041656 
	C259.693634,197.990936 277.388977,198.020676 295.557373,198.261780 
	C296.030487,198.492950 296.036774,198.802307 295.568207,198.861481 
	C277.071198,198.980530 259.042755,199.040405 241.014328,199.100281 
z"/>
<path fill="#5D89B9" opacity="1.000000" stroke="none" 
	d="
M240.745590,280.677673 
	C240.987564,280.969269 241.037811,281.450653 240.663757,281.740387 
	C239.489517,282.027893 238.689331,282.025635 237.889145,282.023376 
	C237.597412,277.349274 237.043091,272.672974 237.082748,268.001678 
	C237.128662,262.595581 237.697189,257.193939 238.122131,251.312210 
	C238.483765,257.941772 238.658325,265.055786 239.092529,272.153961 
	C239.261520,274.916412 240.015900,277.643127 240.745590,280.677673 
z"/>
<path fill="#F4DF82" opacity="1.000000" stroke="none" 
	d="
M28.120605,297.497131 
	C28.569838,297.128204 28.948114,297.131439 29.609581,297.137695 
	C32.039227,303.958679 34.185684,310.776733 36.212345,317.919128 
	C33.411583,311.452118 30.730618,304.660706 28.120605,297.497131 
z"/>
<path fill="#FAEB9D" opacity="1.000000" stroke="none" 
	d="
M25.951122,192.759995 
	C24.863287,199.132324 23.775450,205.504669 22.473026,212.036392 
	C23.236887,204.226044 24.215334,196.256302 25.593887,188.139740 
	C25.993994,187.992935 26.070158,188.066605 26.053183,188.460510 
	C26.007847,190.156265 25.979485,191.458130 25.951122,192.759995 
z"/>
<path fill="#F9E39A" opacity="1.000000" stroke="none" 
	d="
M37.153923,156.757233 
	C36.741203,156.993729 36.564903,156.982483 36.123795,156.960815 
	C38.370701,151.318298 40.882416,145.686188 43.747181,139.921295 
	C44.514301,140.665283 44.928368,141.542068 45.587128,142.539032 
	C45.831825,142.659195 45.829617,142.784271 45.778694,142.826263 
	C43.753609,145.805542 41.716900,148.703415 39.831436,151.696579 
	C38.876781,153.212097 38.195316,154.899719 37.153923,156.757233 
z"/>
<path fill="#5481CA" opacity="1.000000" stroke="none" 
	d="
M438.016479,301.414734 
	C438.498413,301.255859 438.950623,301.491943 439.628967,301.847351 
	C438.148560,308.199799 436.441986,314.432983 434.101715,320.824371 
	C433.257141,320.962921 433.046265,320.943207 432.835358,320.923523 
	C434.552490,314.552246 436.269623,308.181000 438.016479,301.414734 
z"/>
<path fill="#5680C4" opacity="1.000000" stroke="none" 
	d="
M432.656250,321.145508 
	C433.046265,320.943207 433.257141,320.962921 433.784668,321.009796 
	C432.001862,326.027588 429.902466,331.018219 427.434784,336.069244 
	C428.870056,331.208954 430.673584,326.288208 432.656250,321.145508 
z"/>
<path fill="#EAFFFF" opacity="1.000000" stroke="none" 
	d="
M277.167419,282.557159 
	C277.351227,282.623535 277.535004,282.689880 277.989990,282.867798 
	C277.755219,283.318359 277.248291,283.954315 276.743286,283.952789 
	C265.227692,283.918060 253.712296,283.813721 241.953873,283.334412 
	C252.778625,282.825378 263.846375,282.704346 275.706207,282.639160 
	C276.721344,282.649078 276.944366,282.603119 277.167419,282.557159 
z"/>
<path fill="#FBD5C5" opacity="1.000000" stroke="none" 
	d="
M255.793884,20.645084 
	C245.841034,21.101254 235.830490,21.111481 225.346008,21.063976 
	C225.520676,20.665201 226.169495,20.027180 226.817810,20.027681 
	C236.457291,20.035152 246.096725,20.127134 255.793884,20.645084 
z"/>
<path fill="#ABC9FF" opacity="1.000000" stroke="none" 
	d="
M296.036774,198.802307 
	C296.036774,198.802307 296.030487,198.492950 296.021210,198.338531 
	C306.201385,198.182999 316.390808,198.181900 326.768616,198.571136 
	C326.956970,198.961472 326.530640,198.967178 325.842529,198.974197 
	C315.448547,198.921585 305.742645,198.861938 296.036774,198.802307 
z"/>
<path fill="#A5CCF6" opacity="1.000000" stroke="none" 
	d="
M446.517853,255.802673 
	C446.080109,246.956482 446.010223,237.888153 445.972809,228.343201 
	C446.346619,229.016769 446.977081,230.165527 446.982758,231.317352 
	C447.022552,239.404724 446.933533,247.492737 446.517853,255.802673 
z"/>
<path fill="#CEFFFF" opacity="1.000000" stroke="none" 
	d="
M237.084717,223.614288 
	C237.428741,229.565308 237.735870,235.969452 238.002029,242.375305 
	C238.084778,244.366913 238.056534,246.363113 238.149384,248.861786 
	C238.219666,249.366348 238.066818,249.705643 238.115341,249.885834 
	C237.779373,248.816086 237.078949,247.570328 237.062332,246.315536 
	C236.964127,238.900879 237.024796,231.484131 237.084717,223.614288 
z"/>
<path fill="#FBD5C5" opacity="1.000000" stroke="none" 
	d="
M328.106140,132.113373 
	C329.585297,130.985550 331.045074,129.838547 332.806183,128.891800 
	C330.371063,131.943298 327.716766,134.881714 324.845245,137.589783 
	C324.040649,138.348602 322.596466,138.429245 321.257477,138.544708 
	C321.996155,137.741638 322.923065,137.214828 323.985687,136.386078 
	C324.121399,136.084122 324.058380,136.039307 324.297089,135.982330 
	C324.722137,135.619293 324.908478,135.313248 325.094849,135.007217 
	C325.094849,135.007217 325.021820,135.032730 325.327301,134.947937 
	C326.467285,133.932861 327.301758,133.002563 328.136261,132.072266 
	C328.136261,132.072266 328.086761,132.094208 328.106140,132.113373 
z"/>
<path fill="#FAEB9D" opacity="1.000000" stroke="none" 
	d="
M26.568239,184.143066 
	C26.959707,184.829132 26.999035,185.621185 27.081272,186.808624 
	C27.124180,187.203979 27.113209,187.610596 26.815693,187.817108 
	C26.518179,188.023636 26.070158,188.066605 26.070158,188.066605 
	C26.070158,188.066605 25.993994,187.992935 25.955948,187.956055 
	C26.017303,186.695816 26.116701,185.472458 26.568239,184.143066 
z"/>
<path fill="#8FB6F3" opacity="1.000000" stroke="none" 
	d="
M238.068298,282.373169 
	C238.689331,282.025635 239.489517,282.027893 240.689285,281.981079 
	C241.164734,282.087067 241.240601,282.242096 241.365295,282.652222 
	C240.358566,282.845886 239.303009,282.784424 238.068298,282.373169 
z"/>
<path fill="#FBD5C5" opacity="1.000000" stroke="none" 
	d="
M337.404602,124.984337 
	C337.280212,124.506264 337.465393,123.889931 337.997650,123.110001 
	C338.134552,123.579636 337.924377,124.212852 337.404602,124.984337 
z"/>
<path fill="#4A77CB" opacity="1.000000" stroke="none" 
	d="
M328.774414,199.142883 
	C329.043182,199.213715 328.656128,199.441864 328.656128,199.441864 
	C328.656128,199.441864 328.206635,199.409378 328.087463,199.311951 
	C328.147369,199.167038 328.326508,199.119553 328.774414,199.142883 
z"/>
<path fill="#C2564E" opacity="1.000000" stroke="none" 
	d="
M376.037354,70.752876 
	C375.817261,70.908958 375.474579,70.762047 374.926025,70.420135 
	C375.118378,70.300049 375.516541,70.374962 376.037354,70.752876 
z"/>
<path fill="#C4554D" opacity="1.000000" stroke="none" 
	d="
M364.784180,94.210617 
	C364.883575,94.232513 364.820221,94.586220 364.628357,95.469070 
	C364.499817,95.998222 364.399231,95.988327 364.346954,95.991806 
	C364.403595,95.511002 364.512512,95.026718 364.784180,94.210617 
z"/>
<path fill="#FBD5C5" opacity="1.000000" stroke="none" 
	d="
M336.343781,126.061127 
	C336.184143,125.709023 336.286041,125.278465 336.764435,124.958733 
	C336.962402,125.373940 336.783875,125.678307 336.343781,126.061127 
z"/>
<path fill="#FBD5C5" opacity="1.000000" stroke="none" 
	d="
M335.338318,127.063576 
	C335.182953,126.701851 335.288269,126.263214 335.766479,125.953583 
	C335.959259,126.383942 335.779114,126.685303 335.338318,127.063576 
z"/>
<path fill="#FBD5C5" opacity="1.000000" stroke="none" 
	d="
M334.329834,128.062256 
	C334.175873,127.703957 334.285919,127.272079 334.768036,126.959221 
	C334.958038,127.381729 334.775940,127.685211 334.329834,128.062256 
z"/>
<path fill="#FBD5C5" opacity="1.000000" stroke="none" 
	d="
M333.306763,129.045166 
	C333.175964,128.726883 333.301941,128.316696 333.785156,127.982506 
	C333.949402,128.356766 333.756470,128.655014 333.306763,129.045166 
z"/>
<path fill="#4A77CB" opacity="1.000000" stroke="none" 
	d="
M330.981201,198.731720 
	C330.868561,198.990265 330.684296,198.998077 330.223480,198.994080 
	C330.267792,198.815170 330.588715,198.648071 330.981201,198.731720 
z"/>
<path fill="#C4554D" opacity="1.000000" stroke="none" 
	d="
M327.794373,132.115372 
	C327.301758,133.002563 326.467285,133.932861 325.340424,134.984329 
	C325.849548,134.123154 326.651001,133.140823 327.794373,132.115372 
z"/>
<path fill="#C7524A" opacity="1.000000" stroke="none" 
	d="
M114.279861,61.817932 
	C114.511497,61.361019 115.028259,60.828846 115.792358,60.159264 
	C115.548126,60.595463 115.056557,61.169071 114.279861,61.817932 
z"/>
<path fill="#C7524A" opacity="1.000000" stroke="none" 
	d="
M116.208740,59.884964 
	C116.195442,59.761246 116.406113,59.522606 116.838333,59.166355 
	C116.854622,59.292065 116.645561,59.532501 116.208740,59.884964 
z"/>
<path fill="#C4554D" opacity="1.000000" stroke="none" 
	d="
M324.875031,135.147614 
	C324.908478,135.313248 324.722137,135.619293 324.273193,136.012726 
	C324.225494,135.829407 324.440369,135.558701 324.875031,135.147614 
z"/>
<path fill="#4985E9" opacity="1.000000" stroke="none" 
	d="
M254.485535,206.989319 
	C255.910858,206.326080 257.801605,205.089081 259.694946,205.085190 
	C310.641876,204.980194 361.589111,204.989120 412.536163,205.056870 
	C414.232361,205.059113 415.927521,205.873032 417.802002,206.648651 
	C363.637970,206.989182 309.295074,206.989685 254.485535,206.989319 
z"/>
<path fill="#4985E9" opacity="1.000000" stroke="none" 
	d="
M437.805603,201.397278 
	C438.124786,201.072021 438.300079,201.053558 438.738892,201.013733 
	C439.675964,202.403534 440.349457,203.814682 441.022156,205.604706 
	C438.301788,206.319992 435.582214,206.656387 432.439270,206.990997 
	C433.897797,205.227509 435.779724,203.465790 437.805603,201.397278 
z"/>
<path fill="#457BD5" opacity="1.000000" stroke="none" 
	d="
M356.335571,286.990814 
	C356.264771,286.536255 356.420166,285.992981 356.742462,285.219482 
	C356.793518,285.626862 356.677643,286.264496 356.335571,286.990814 
z"/>
<path fill="#F8E590" opacity="1.000000" stroke="none" 
	d="
M26.053183,188.460510 
	C26.070158,188.066605 26.518179,188.023636 26.742569,188.006897 
	C26.744085,189.381363 26.521210,190.772568 26.124729,192.461884 
	C25.979485,191.458130 26.007847,190.156265 26.053183,188.460510 
z"/>
<path fill="#4A77CB" opacity="1.000000" stroke="none" 
	d="
M295.568207,198.861481 
	C305.742645,198.861938 315.448547,198.921585 325.635651,199.025665 
	C323.846375,199.382339 321.576752,199.958801 319.305237,199.966354 
	C293.531616,200.052216 267.757660,200.051056 241.521515,200.091766 
	C241.048599,199.942093 241.037979,199.773834 241.020844,199.352921 
	C259.042755,199.040405 277.071198,198.980530 295.568207,198.861481 
z"/>
<path fill="#8FB6F3" opacity="1.000000" stroke="none" 
	d="
M277.019531,282.437195 
	C276.944366,282.603119 276.721344,282.649078 276.163391,282.626099 
	C276.176147,282.477173 276.523895,282.397217 277.019531,282.437195 
z"/>
</svg>