<svg width="2000" height="549" xmlns="http://www.w3.org/2000/svg"><g fill-rule="nonzero" fill="none"><g fill="#21C0E8"><path d="M233.4 547c-14.4-3.7-10.6-1.7-159.9-87.4-19.8-11.4-39.3-23.2-43.4-26.3C16.7 423 7 408 3.5 392 1.4 382.8.2 327 .1 238.1c-.1-49 .2-61.2 1.5-70 3.5-23.9 11.6-38.4 28.6-51.4 7.9-6 174.5-102.8 186.7-108.4 9-4.3 24.5-8.3 31.6-8.3 7.1 0 23.4 4.3 32 8.3 11.6 5.6 178.5 101.6 185.8 106.9 10 7.4 17.2 15.9 22.2 26.3 8.3 17.1 8.003 11.6 8.003 134.5 0 122.2.397 114.7-7.703 132-5.5 11.5-17.7 23.7-32.8 32.8-25.8 15.6-169.2 98-175.6 100.9-15.6 7.2-32.5 9.1-47 5.3ZM163 382.7c25.8-6.7 50.3-24.2 65.4-47 5.3-8 6-8.7 9.1-8.7 3.1 0 3.8.7 9.1 8.8 7.2 10.7 19.4 23.1 29.7 30.1 29.5 19.9 62.3 25 94 14.6 19.9-6.5 43.7-22.7 43.7-29.8 0-3-5.6-8.7-8.5-8.7-1.2 0-5.7 2.5-9.9 5.6-9 6.5-21 12.4-32.1 15.6-7 2-10.3 2.3-25.5 2.3-20.6 0-27.4-1.3-40.5-8-10.7-5.5-18.2-11.3-27.6-21.3-11.8-12.6-20.9-32.2-20.9-45.1V285l94.3-.2c88.5-.3 94.4-.4 97.5-2.1 5.7-3.1 7.4-7 6.8-15.7-.7-10.6-4.7-25.5-10-36.6-21.9-46.1-72.5-72.9-119.2-63-32 6.8-58.3 25.2-74.7 52.2-2.8 4.6-3.6 5.3-6.4 5.4-2.9 0-3.7-.8-9.4-9.2-26.6-39.3-73.6-58.2-116.9-47-14.4 3.7-22.8 7.5-35.2 15.8-14.7 9.9-18.1 14.7-14.2 20.2 1.9 2.7 6.4 5.1 8.4 4.4.8-.3 4.9-2.9 9.1-5.8 10-7 22.2-13 31.7-15.6 10.4-2.9 37.1-3.1 47.6-.5 17 4.3 33.7 13.6 43.8 24.5 13.3 14.5 23.8 35.4 23.8 47.7v5.5h-64.3c-61.1 0-64.8.1-72.3 2-21 5.3-34.8 18.1-38.8 36-2.1 9.1-2 13.1.4 22.4 3.7 14.1 10.7 25.4 22.6 36.5 11.8 11 28.6 19.5 45.1 22.6 11.6 2.2 32.1 1.3 44.3-1.8Z"/><path d="M123.5 366.4c-1.1-.2-4.5-.9-7.5-1.5s-9.7-3.1-14.8-5.5c-21.5-10.3-33.6-29.6-31.9-50.7 1-11.8 6.2-18.2 17.9-21.8 5.6-1.8 10.4-1.9 72.4-1.9H226v4.6c0 13.6-10.4 35.9-23.3 50.1-9.7 10.6-26.5 20.3-42.2 24.4-7.7 2-31.9 3.5-37 2.3ZM248.3 263.4c-1-2.7 1.7-14.3 5.5-23.3 10.6-25.4 31-43.6 57.9-51.8 8.1-2.4 10.2-2.6 26.3-2.6 16.2 0 18.2.2 26.5 2.7 16.6 5 28 11.9 39.5 23.6 12.8 13 21.9 31.3 22.8 45.3l.5 7.7h-89.2c-81.5 0-89.2-.1-89.8-1.6Z"/></g><g fill="#FFF"><path d="M115.7 387.5c-27.2-5.2-51.1-22.7-63-46.1C49 334 46 321.7 46 313.8c0-25.5 14.4-43.2 40.4-49.8 7.5-1.9 11.2-2 72.3-2H223v-2.5c0-3.1-3.5-13.4-6.8-20-12.9-25.8-33.4-42.3-60.8-49.2-10.2-2.5-31.4-2.3-41.6.5-9.6 2.6-21.8 8.6-32.1 15.9-9.6 6.8-14.3 7.8-19.7 4.1-4.5-3-6.6-8.8-5.1-13.8 1.4-4.6 5.3-8.3 17.3-16.3 11.6-7.8 21-11.8 35.5-15.4 13.9-3.4 35.8-3.9 49.3-.9 30 6.5 54.9 23.3 71.9 48.4l6.3 9.3 4-6.3c21.5-33.3 53.4-51.7 92.8-53.5 25.5-1.1 50.9 6.6 71 21.8 27.3 20.6 44.3 51.5 45.7 82.9.4 9.3.2 10.9-1.6 13.7-1.1 1.8-3.5 4-5.3 5-3.1 1.7-9 1.8-97.5 2.1l-94.3.2v3.1c0 1.7 1.2 6.5 2.6 10.7 7.6 22.8 23.8 41.4 45.9 52.7 12.6 6.4 20.2 8 37.5 8 12-.1 15.9-.5 22.5-2.3 10.8-3.1 23.3-9.1 31.4-15.1 8.1-6 10.9-7.2 15.5-6.4 4.3.7 9.1 5.2 9.9 9.3 1.4 7-2.9 12.9-16.2 21.9-32 21.8-76.5 25.2-110.8 8.7-19.5-9.4-35.6-23.2-46.7-39.8-3.2-4.9-5.9-8.8-6.1-8.8-.2 0-2.9 3.9-6.1 8.7-15.1 22.7-39.5 40.2-65.4 47-12.2 3.2-38 4.1-50.3 1.8Zm41.8-26.5c21-5.3 39.5-18.2 50.9-35.5 7-10.4 14.6-29.2 14.6-35.9 0-1.5-5.9-1.6-63.4-1.6-59.1 0-63.8.1-69.4 1.9-7.6 2.3-11.6 5.2-14.6 10.4-3.1 5.5-4 11.2-2.7 18.2 2.9 15.6 14.6 29.9 31.3 37.9 5.1 2.4 11.8 4.9 14.8 5.5 3 .6 6.4 1.3 7.5 1.5 4.3 1.1 23.4-.4 31-2.4Zm266.2-103.9c-1.4-12-11.5-30.6-22.7-42.1-11.5-11.7-23-18.6-39.5-23.6-8-2.4-10.6-2.7-23.5-2.7-12.8 0-15.5.3-23.3 2.7-26.6 8-47.3 26.4-57.7 51.2-3.4 8.2-6.1 18-5.2 18.9.3.3 39.2.5 86.5.5h86l-.6-4.9ZM616.5 384c-29.9-2.1-57.6-18.7-71-42.5-13.9-24.6-11.8-50.5 5.4-67.5 7.4-7.3 14.4-11.1 25.4-13.9 6.4-1.7 13.6-1.9 67.7-2.5 33.3-.4 61.1-.6 61.9-.6 1.9 0 .7-5.3-3.3-14.9-10.3-24.4-30.9-42.4-56.1-49.2-12.3-3.3-31.9-3.1-43.8.5-10.6 3.2-20.1 7.8-28.3 13.9-8.2 6-9.6 6.7-14.1 6.7-11.2 0-17.6-12.5-11-21.6 6-8.6 30.7-23 46.6-27.3 23.5-6.5 51.6-4.3 74.8 5.7 23.7 10.2 43.5 29.6 55.8 54.7 3 6.1 6.3 14.6 7.5 19 8.6 33.3 1.4 69.5-19.1 96.2-5.6 7.2-19.3 20.1-26.8 25.2-9.3 6.3-23.5 12.8-33.2 15-7.5 1.8-11.2 2.3-24.9 3.5-1.9.1-8 0-13.5-.4Zm24.7-29.4c29.7-5.7 53.8-27.1 63-55.8 1.7-5.4 2.8-10.4 2.5-11.3-.6-1.3-7.1-1.5-56.4-1.5-57.2 0-66.5.5-73.2 3.9-5.1 2.7-9.9 8.3-10.7 12.7-4.1 22.1 15.6 45.8 43 51.9 8.2 1.8 22.8 1.8 31.8.1ZM1758.2 383.9c-3.4-.7-7.5-3.9-9.5-7.4-.9-1.5-1.3-25.8-1.7-89.5l-.5-87.5-9.5-.5c-10.4-.6-12.5-1.4-16.4-6.1-5.3-6.3-2.5-17.2 5.4-21.1 2.5-1.3 5.9-1.8 12.3-1.8h8.7v-10.5c0-12.6 1.6-17.5 6.7-20.6 4.5-2.8 11.5-2.9 15.1-.2 5.5 4.1 6.2 6.1 6.3 17.3 0 5.8.3 11.3.6 12.3.4 1.6 2.9 1.7 33.9 1.7 36.7 0 37.8.2 42.7 5.9 2.1 2.6 2.7 4.3 2.7 8.3 0 6.1-2.1 9.9-7 12.7-3.6 2-5.1 2.1-37.8 2.1-30.1 0-34.1.2-34.6 1.6-.3.9-.6 40.2-.6 87.5 0 91.9.2 88.7-4.8 93.2-2.6 2.4-7.8 3.5-12 2.6ZM989 382.1c-49.2-10.9-85.8-53.4-88.7-103.1-2.9-52.1 33-101.2 83.6-114 38.7-9.8 77.9 1 106.3 29.3 12.2 12.1 23.1 29.7 27.3 43.9 2.5 8.9-.1 16-7.3 19.7-2 1-41.8 12.8-88.4 26.1L937 308.3l3.3 6c6.5 12.3 24 28 38.2 34.3 14 6.2 37.5 8.4 52.3 4.9 18.2-4.3 37.4-17.1 48.9-32.5 6.4-8.6 7.7-9.5 14.3-9.5 6.3 0 9.6 2 12.6 7.7 3 5.9 1.5 10.8-6.5 21.3-15 19.6-35.2 33.1-60.2 40.1-12.9 3.6-37.9 4.4-50.9 1.5Zm18.8-124c42-12.1 76.6-22.2 77-22.6 1-1-3.3-8.5-8.9-15.3-19.3-23.9-53-35.1-83.6-27.7-9.3 2.3-25.5 10.3-32.9 16.4-17.4 14.2-28.6 36.8-30.1 60.8-.5 8.5-.4 10.3.8 10.3.8 0 35.8-9.9 77.7-21.9ZM1406.4 382.9c-8.4-1.4-21.3-5.8-30.9-10.5-28.1-13.9-50.1-41.1-58.1-72.1-3.7-14.1-4.3-34-1.6-47.8 7.3-36.2 29.4-64.8 62.2-80.4 42.2-20.1 92.9-11.3 126.1 21.8 19.6 19.7 32 47.7 32.3 72.8.1 9.9-.9 12.3-6.8 16.7-2.7 2.1-3.6 2.1-94.2 2.4-65.1.2-91.4.5-91.4 1.3 0 3.4 3.7 14.5 7.1 21.4 8.6 17.2 21.2 30.1 37.4 38.1 13.2 6.5 22.4 8.6 37.5 8.6 19.5.1 33.7-4.7 51.1-17.2 7.3-5.2 9-6 12.9-6 8.2 0 14 5.7 14 13.7 0 5-2.7 9.2-9.2 14.4-15.1 11.9-31.3 19.3-49.3 22.5-8.7 1.5-30.8 1.7-39.1.3Zm100-128.6c-3.8-17.5-14.5-34.5-28.8-45.9-42.1-33.5-104.6-18.9-127 29.8-1.9 4-4.1 9.9-4.9 13.1l-1.5 5.7H1507l-.6-2.7ZM1918.2 381c-19.2-5.1-33.6-16.8-43.1-35-9.2-17.6-9.3-33-.3-38.2 6.2-3.7 15.4-1.2 18.6 5 .8 1.6 2 5.8 2.5 9.3 2.8 16.9 15.3 29.2 32.8 32.2 11.3 2 22.5-1.7 31.3-10.3 5.8-5.6 9.4-12.4 11-20.7 3.1-15.5-5.6-33.5-19.2-40.1-2.5-1.3-9.8-3.2-16.3-4.3-19-3.2-29.1-8.2-39.5-19.5-27-29.4-15.3-77.3 22.4-91.3 31.3-11.6 65.2 6 75 38.8 2.8 9.5 1.8 14.8-3.7 19.9-4.9 4.6-15.5 3.5-19.1-2-.8-1.3-2.7-5.9-4.1-10.2-3.3-10.2-7-14.7-15.1-18.7-14.9-7.3-31.6-2-39.2 12.5-2.2 4.3-2.7 6.4-2.7 13.1 0 6.7.5 8.8 2.7 13.1 3.3 6.2 9.1 11.6 14.9 13.8 2.4.9 9.2 2.5 15 3.5 29.3 5.2 46.8 20.2 55 47.1 1.7 5.7 2.3 10 2.3 17.5.1 12.1-1.3 18.3-6.6 29.5-3.3 6.9-5.6 10.1-12.7 17.1-7 7-10.2 9.4-17.1 12.7-14.8 7.1-30.6 8.9-44.8 5.2ZM1211 379.7c-1.9-1.2-4.2-3.6-5.1-5.2-2.7-4.6-75-190.3-75.5-193.8-1-6.7 6.3-14.7 13.3-14.7 4.8 0 9.7 2.3 12 5.6 1.1 1.6 14.1 33.7 28.8 71.4 34.6 88.7 33.6 86.3 34.6 85.3.5-.5 13.9-34.6 29.8-76 15.9-41.3 29.6-76.4 30.4-77.9 3.1-5.9 6.3-7.9 12.7-7.9 4.8 0 6.3.4 8.5 2.5 3.5 3.2 5.5 7.2 5.5 10.7 0 3-72.9 190.8-76.1 195.9-3.8 6.3-12.9 8.2-18.9 4.1ZM772 378.8c-8.7-4.4-8 7.5-8-137.8 0-120.3.1-128.7 1.8-132 5-10 19.2-10.6 24.4-.9 1.7 3.2 1.8 9.4 1.8 132.9 0 126.6-.1 129.6-2 132.7-4.1 6.8-10.9 8.7-18 5.1ZM847 379.3c-1.9-1-4.5-3.3-5.7-5.2l-2.3-3.4V241.3c0-114.3.2-129.9 1.5-132.6 4.8-9.9 18.6-10.1 24.5-.5 2 3.2 2 5.3 2 132.1 0 107.5-.2 129.3-1.4 132.1-2.9 6.8-12.1 10.3-18.6 6.9ZM1561.1 378.3c-1.9-1-4.4-3.1-5.5-4.6-2.1-2.8-2.1-3.5-2.4-99.4-.2-94.7-.2-96.7 1.8-100.7 2.5-5.2 6.4-7.6 12.5-7.6 5.7 0 9.7 2.6 12.6 8.1l2 4 4.5-3.2c20.9-14.4 48.7-17.3 71.9-7.6 7.8 3.2 17.8 10 23.8 16.1 10 10.2 16 21 20 35.7 2.2 8.3 2.2 9.1 2.2 80.6v72.2l-2.9 3c-6.9 7.2-18.1 6.1-22.9-2.2-.9-1.7-1.3-19.1-1.8-72.2-.6-76.4-.5-75.5-6.6-86.7-3.2-5.9-11.7-14.4-18-18-5.4-3.1-16-5.8-22.7-5.8-17.1 0-33.6 9.9-41.4 24.7-6.4 12.1-6.4 12.7-6.9 88.2l-.5 68.4-3.7 3.9c-4.5 4.9-10.5 6-16 3.1Z"/></g></g></svg>